<svg viewBox="0 0 14 14" fill="none" xmlns="http://www.w3.org/2000/svg">
<path d="M7.62701 7.95485C7.41774 7.96134 7.20846 7.96495 7.00015 7.96495C6.79112 7.96495 6.58112 7.96158 6.37136 7.95485C4.60552 7.9065 3.19833 7.65705 2.18515 7.30128C1.70887 7.1406 1.30114 6.95153 0.986267 6.73528V8.4458V8.56607V8.68635V8.99641C1.67086 9.71107 3.96759 10.3702 6.99991 10.3702C10.0322 10.3702 12.329 9.71107 13.0136 8.99641V8.68635V8.56607V8.4458V6.73528C12.6965 6.95297 12.2852 7.14349 11.8048 7.30465C10.7921 7.65873 9.38781 7.90674 7.62701 7.95485Z" fill="#828282"/>
<path d="M0.986267 3.58148V5.292V5.41227V5.53255V5.84261C1.62083 6.50507 3.64021 7.11991 6.34707 7.20602C6.37473 7.20699 6.40312 7.20723 6.43102 7.20795C6.50944 7.21011 6.58761 7.21228 6.66723 7.21348C6.77716 7.21541 6.88806 7.21637 6.99991 7.21637C7.11176 7.21637 7.22265 7.2154 7.33258 7.21372C7.41196 7.21252 7.49038 7.21035 7.5688 7.20819C7.5967 7.20747 7.62509 7.20699 7.65275 7.20626C10.3596 7.11991 12.379 6.50507 13.0136 5.84285V5.53255V5.41227V5.292V3.58148C11.8428 4.38563 9.36784 4.81091 6.99991 4.81091C4.63198 4.81091 2.15724 4.38563 0.986267 3.58148Z" fill="#828282"/>
<path d="M12.9811 2.05474C12.7112 1.02015 10.6358 0 6.99991 0C3.3732 0 1.29994 1.0151 1.02163 2.04704C1.00118 2.0824 0.986267 2.12113 0.986267 2.16491V2.28518V2.71961C1.6687 3.43187 3.94907 4.08928 6.99991 4.08928C10.0507 4.08928 12.3314 3.43187 13.0136 2.71961V2.28518V2.16491C13.0136 2.1245 13.0001 2.08818 12.9811 2.05474Z" fill="#828282"/>
<path d="M0.986267 9.86237V11.8351C0.986267 11.8741 0.996611 11.9109 1.01441 11.9436C1.2985 13.121 3.8401 14 6.99991 14C10.1525 14 12.69 13.1247 12.9835 11.9515C13.0027 11.9169 13.0136 11.8772 13.0136 11.8351V9.86285C12.0189 10.5631 9.96945 11.1135 6.99991 11.1135C4.03013 11.1135 1.98068 10.5626 0.986267 9.86237Z" fill="#828282"/>
</svg>
