<svg width="35" height="40" viewBox="0 0 35 40" fill="none" xmlns="http://www.w3.org/2000/svg">
<path d="M18.9736 22.7282C18.3756 22.7467 17.7777 22.757 17.1825 22.757C16.5853 22.757 15.9853 22.7474 15.386 22.7282C10.3407 22.59 6.32017 21.8773 3.42537 20.8608C2.06457 20.4017 0.899641 19.8615 0 19.2437V24.1309V24.4745V24.8182V25.7041C1.95598 27.7459 8.51807 29.6291 17.1818 29.6291C25.8456 29.6291 32.4077 27.7459 34.3637 25.7041V24.8182V24.4745V24.1309V19.2437C33.4578 19.8657 32.2826 20.41 30.9101 20.8705C28.0167 21.8821 24.0044 22.5907 18.9736 22.7282Z" fill="#FD1015"/>
<path d="M0 10.2328V15.12V15.4637V15.8073V16.6932C1.81303 18.5859 7.58269 20.3426 15.3166 20.5887C15.3956 20.5914 15.4767 20.5921 15.5564 20.5942C15.7805 20.6003 16.0038 20.6065 16.2313 20.61C16.5454 20.6155 16.8623 20.6182 17.1818 20.6182C17.5014 20.6182 17.8182 20.6155 18.1323 20.6106C18.3591 20.6072 18.5832 20.601 18.8072 20.5948C18.887 20.5928 18.9681 20.5914 19.0471 20.5893C26.781 20.3426 32.5506 18.5859 34.3637 16.6939V15.8073V15.4637V15.12V10.2328C31.0187 12.5304 23.9474 13.7455 17.1818 13.7455C10.4163 13.7455 3.34565 12.5304 0 10.2328Z" fill="#FD1015"/>
<path d="M34.2709 5.87069C33.4998 2.91473 27.57 0 17.1818 0C6.81981 0 0.896205 2.90029 0.101029 5.8487C0.0426112 5.94973 0 6.06038 0 6.18546V6.5291V7.77031C1.94979 9.80533 8.46515 11.6836 17.1818 11.6836C25.8985 11.6836 32.4146 9.80533 34.3637 7.77031V6.5291V6.18546C34.3637 6.07 34.3252 5.96622 34.2709 5.87069Z" fill="#FD1015"/>
<path d="M0 28.1782V33.8145C0 33.9259 0.0295528 34.031 0.0804111 34.1245C0.892081 37.4887 8.15381 40 17.1818 40C26.1892 40 33.4393 37.499 34.2778 34.1472C34.3327 34.0482 34.3637 33.9348 34.3637 33.8145V28.1796C31.5218 30.1802 25.6662 31.7527 17.1818 31.7527C8.69676 31.7527 2.84119 30.1788 0 28.1782Z" fill="#FD1015"/>
</svg>
