<svg viewBox="0 0 15 15" fill="none" xmlns="http://www.w3.org/2000/svg">
<path d="M7.50001 7.33599C9.16776 7.33599 10.5199 5.69379 10.5199 3.66802C10.5199 1.6422 10.0759 0 7.50001 0C4.92407 0 4.48007 1.6422 4.48007 3.66802C4.48007 5.69379 5.83218 7.33599 7.50001 7.33599Z" fill="#828282"/>
<path d="M1.7961 12.9366C1.79558 12.813 1.79507 12.9018 1.7961 12.9366V12.9366Z" fill="#828282"/>
<path d="M13.2036 13.033C13.2053 12.9992 13.2042 12.7984 13.2036 13.033V13.033Z" fill="#828282"/>
<path d="M13.1972 12.7884C13.1413 9.2595 12.6804 8.25395 9.15355 7.61743C9.15355 7.61743 8.65709 8.25005 7.49995 8.25005C6.34281 8.25005 5.84626 7.61743 5.84626 7.61743C2.35791 8.247 1.86899 9.23765 1.80471 12.6738C1.79944 12.9544 1.79699 12.9691 1.79605 12.9366C1.79627 12.9976 1.79652 13.1105 1.79652 13.3073C1.79652 13.3073 2.63618 15 7.49995 15C12.3636 15 13.2034 13.3073 13.2034 13.3073C13.2034 13.1808 13.2035 13.0929 13.2036 13.0331C13.2027 13.0532 13.2008 13.0142 13.1972 12.7884Z" fill="#828282"/>
</svg>
